<svg xmlns="http://www.w3.org/2000/svg" viewBox="0 0 49 49">
  <defs>
    <style>
      .cls-1 {
        fill: #fff;
      }
    </style>
  </defs>
  <g id="Group_18" data-name="Group 18" transform="translate(-111 -62)">
    <path id="Exclusion_1" data-name="Exclusion 1" class="cls-1" d="M24.5,49A24.5,24.5,0,0,1,7.176,7.176,24.5,24.5,0,0,1,41.824,41.824,24.34,24.34,0,0,1,24.5,49Zm.143-39.285a1.611,1.611,0,0,0-.911.3,1.513,1.513,0,0,0-.608.839,22.341,22.341,0,0,1-1.481,3.6c-.653,1.288-1.251,2.357-1.778,3.178s-1.129,1.724-1.8,2.7c-.725,1.047-1.052,1.521-1.116,1.616a9.178,9.178,0,0,0-1.446,4.91A9.145,9.145,0,0,0,24.643,36a9.146,9.146,0,0,0,9.143-9.143,9,9,0,0,0-1.446-4.91c-.072-.108-.446-.649-1.117-1.616s-1.281-1.88-1.8-2.7-1.124-1.892-1.777-3.178a22.433,22.433,0,0,1-1.482-3.6,1.417,1.417,0,0,0-.6-.839A1.654,1.654,0,0,0,24.643,9.715ZM22.357,31.429a2.286,2.286,0,0,1-2.285-2.286,2.355,2.355,0,0,1,.356-1.232c.012-.011.09-.124.277-.4q.245-.362.433-.645l.022-.033a8.167,8.167,0,0,0,.446-.787,5.68,5.68,0,0,0,.375-.9.389.389,0,0,1,.75,0,5.6,5.6,0,0,0,.375.9,8.007,8.007,0,0,0,.446.787q.2.294.455.678c.16.239.264.39.276.4a2.347,2.347,0,0,1,.357,1.232,2.286,2.286,0,0,1-2.286,2.286Z" transform="translate(111 62)"/>
  </g>
</svg>
